<svg width="11" height="8" viewBox="0 0 11 8" fill="none" xmlns="http://www.w3.org/2000/svg">
<path d="M6.41307 4.09988C6.45704 3.62588 6.31016 3.17367 6.00473 2.84269C5.6993 2.51171 5.26032 2.32905 4.78431 2.33488L2.98912 2.35695C2.513 2.36287 2.03887 2.5569 1.67103 2.89634C1.30319 3.23579 1.07178 3.69284 1.0277 4.16695C0.983624 4.64106 1.13049 5.0934 1.43599 5.42446C1.74149 5.75552 2.1806 5.93817 2.65672 5.93224L3.55419 5.92107" stroke="#929292" stroke-width="0.3" stroke-linecap="round" stroke-linejoin="round"/>
<path d="M4.61824 4.1222C4.57427 4.5962 4.72115 5.04841 5.02658 5.37939C5.33201 5.71037 5.77099 5.89303 6.24699 5.8872L8.04219 5.86514C8.51831 5.85921 8.99244 5.66518 9.36028 5.32574C9.72811 4.98629 9.95952 4.52924 10.0036 4.05513C10.0477 3.58102 9.90082 3.12868 9.59532 2.79762C9.28982 2.46656 8.85071 2.28391 8.37458 2.28984L7.47712 2.30101" stroke="#929292" stroke-width="0.3" stroke-linecap="round" stroke-linejoin="round"/>
</svg>
